<?xml version="1.0" standalone="no"?>
<!DOCTYPE svg PUBLIC "-//W3C//DTD SVG 20010904//EN"
 "http://www.w3.org/TR/2001/REC-SVG-20010904/DTD/svg10.dtd">
<svg version="1.0" xmlns="http://www.w3.org/2000/svg"
 width="512.000000pt" height="512.000000pt" viewBox="0 0 512.000000 512.000000"
 preserveAspectRatio="xMidYMid meet">
<metadata>
Created by potrace 1.11, written by Peter Selinger 2001-2013
</metadata>
<g transform="translate(0.000000,512.000000) scale(0.100000,-0.100000)"
fill="#000000" stroke="none">
<path d="M2345 5113 c-480 -56 -831 -177 -1185 -410 -621 -409 -1023 -1037
-1136 -1778 -26 -170 -26 -560 0 -730 86 -564 337 -1060 736 -1455 390 -386
883 -632 1435 -716 170 -26 561 -26 730 0 1135 174 1997 1036 2171 2171 26
170 26 560 0 730 -113 741 -515 1369 -1136 1778 -424 278 -906 420 -1415 416
-93 -1 -183 -4 -200 -6z m1181 -697 c139 -30 272 -91 392 -181 60 -45 248
-247 325 -349 21 -28 58 -91 82 -141 159 -327 128 -705 -83 -1005 -56 -80
-597 -628 -707 -716 -189 -152 -405 -222 -655 -211 -185 8 -309 45 -474 142
-88 51 -316 269 -345 329 -57 117 3 271 125 322 44 18 136 18 181 -1 20 -9 80
-57 132 -108 53 -51 116 -106 141 -123 180 -121 417 -117 587 10 32 24 191
178 354 342 218 219 304 312 322 349 86 173 77 372 -22 522 -64 95 -245 265
-327 306 -151 76 -310 77 -464 3 -54 -25 -98 -63 -255 -217 -212 -208 -234
-223 -331 -217 -122 7 -213 98 -222 219 -8 106 8 131 207 330 97 97 205 198
241 224 117 85 269 151 405 174 33 6 71 13 85 15 47 8 235 -3 306 -18z m-1131
-1071 c149 -24 274 -73 400 -158 94 -63 313 -283 341 -342 41 -86 28 -175 -38
-250 -50 -57 -109 -85 -179 -85 -81 1 -121 25 -256 158 -131 127 -196 170
-298 197 -118 30 -262 14 -369 -42 -36 -19 -151 -126 -394 -368 -326 -323
-345 -344 -383 -420 -80 -162 -69 -349 30 -504 43 -67 256 -271 317 -303 100
-54 251 -73 364 -47 115 26 164 62 380 274 113 111 215 207 226 213 12 6 43
16 70 22 182 41 332 -153 250 -325 -36 -77 -422 -454 -535 -523 -158 -96 -324
-142 -516 -142 -130 0 -225 16 -342 58 -145 51 -231 111 -401 277 -173 168
-250 272 -301 404 -55 142 -65 201 -65 371 0 169 10 229 64 368 61 159 119
229 498 606 191 190 372 364 401 385 203 152 479 218 736 176z"/>
</g>
</svg>
